<svg xmlns="http://www.w3.org/2000/svg" viewBox="0 0 100 100">
  <circle cx="50" cy="50" r="50" fill="#f5f2e8" />
  <g transform="translate(5, 5) scale(0.9)">
    <!-- Outer hexagon -->
    <polygon points="50,10 90,30 90,70 50,90 10,70 10,30" fill="#1a1a1a" />
    
    <!-- Inner hexagons - from outer to inner -->
    <polygon points="50,18 82,34 82,66 50,82 18,66 18,34" fill="none" stroke="white" stroke-width="3.5" />
    <polygon points="50,26 74,38 74,62 50,74 26,62 26,38" fill="none" stroke="white" stroke-width="3.5" />
    <polygon points="50,34 66,42 66,58 50,66 34,58 34,42" fill="none" stroke="white" stroke-width="3.5" />
    
    <!-- Center hexagon -->
    <polygon points="50,42 58,46 58,54 50,58 42,54 42,46" fill="white" />
  </g>
</svg>